<mxfile host="app.diagrams.net" modified="2023-08-05T16:16:42.402Z" agent="Mozilla/5.0 (Windows NT 10.0; Win64; x64) AppleWebKit/537.36 (KHTML, like Gecko) Chrome/114.0.0.0 Safari/537.36" version="21.6.6" etag="T1J0uMV-5T0hs_Aa0ItP" type="github">
  <diagram name="第 1 页" id="uVQxuzCNWS2R3r-ZkkOp">
    <mxGraphModel>
      <root>
        <mxCell id="0" />
        <mxCell id="1" parent="0" />
      </root>
    </mxGraphModel>
  </diagram>
</mxfile>
